<?xml version="1.0" encoding="utf-8"?>
<!-- Generator: Adobe Illustrator 24.0.0, SVG Export Plug-In . SVG Version: 6.00 Build 0)  -->
<svg version="1.1" xmlns="http://www.w3.org/2000/svg" xmlns:xlink="http://www.w3.org/1999/xlink" x="0px" y="0px"
	 viewBox="0 0 750 500" style="enable-background:new 0 0 750 500;" xml:space="preserve">
<style type="text/css">
	.st0{opacity:0.24;}
	.st1{fill:#FF002B;}
	.st2{fill:none;stroke:#FDFCFF;stroke-width:1.9364;stroke-linecap:round;stroke-linejoin:round;stroke-miterlimit:10;}
	.st3{fill:#DD4C88;}
	.st4{fill:#FF408E;}
	.st5{fill:#FFFFFF;}
	.st6{fill:#FAFAFA;}
	.st7{fill:none;stroke:#FDFCFF;stroke-width:1.7845;stroke-miterlimit:10;}
	.st8{fill:none;stroke:#FDFCFF;stroke-width:1.9364;stroke-miterlimit:10;}
	.st9{fill:#3A1616;}
	.st10{fill:#D6906E;}
	.st11{fill:none;stroke:#161311;stroke-width:1.0236;stroke-linecap:round;stroke-linejoin:round;stroke-miterlimit:10;}
	.st12{fill:#1A1A1A;}
	.st13{fill:none;stroke:#BF704F;stroke-width:0.9962;stroke-miterlimit:10;}
	.st14{fill:none;stroke:#C12D71;stroke-width:1.9923;stroke-miterlimit:10;}
	.st15{fill:#E8ABA2;}
	.st16{fill:none;stroke:#D8857D;stroke-width:0.9962;stroke-miterlimit:10;}
	.st17{fill:#2F1118;}
	.st18{fill:none;stroke:#161311;stroke-width:1.0982;stroke-linecap:round;stroke-linejoin:round;stroke-miterlimit:10;}
	.st19{fill:none;stroke:#FDFCFF;stroke-width:1.9923;stroke-miterlimit:10;}
</style>
<g id="BACKGROUND">
</g>
<g id="OBJECTS">
	<g>
		<g>
			<g class="st0">
				<path class="st1" d="M585.03,302.59c0-118.75-96.27-215.02-215.02-215.02s-215.02,96.27-215.02,215.02
					c0,49.85,16.97,95.74,45.45,132.21h339.14C568.05,398.33,585.03,352.44,585.03,302.59z"/>
			</g>
			<g>
				<g>
					<g>
						<path class="st1" d="M245.72,94.08h-77.48c-1.41,0-2.55-1.14-2.55-2.55V69.79c0-1.41,1.14-2.55,2.55-2.55h77.48
							c1.41,0,2.55,1.14,2.55,2.55v21.73C248.28,92.93,247.14,94.08,245.72,94.08z"/>
						<g>
							<line class="st2" x1="177.95" y1="76.45" x2="230.91" y2="76.45"/>
							<line class="st2" x1="177.95" y1="83.64" x2="197.54" y2="83.64"/>
						</g>
					</g>
					<path class="st3" d="M235.13,91.15v9.38c0,0.28-0.32,0.43-0.54,0.26l-12.13-9.64H235.13z"/>
				</g>
				<g>
					<g>
						<g>
							<g>
								<g>
									<g>
										<g>
											<path class="st4" d="M178.42,342.31h-52.91c-5.14,0-9.31-4.17-9.31-9.31v-49.19c0-3.9,3.16-7.05,7.05-7.05h55.16
												c3.9,0,7.05,3.16,7.05,7.05v51.44C185.47,339.15,182.31,342.31,178.42,342.31z"/>
										</g>
									</g>
								</g>
							</g>
						</g>
					</g>
					<path class="st5" d="M161.46,301.89c-2.61-2.56-6.8-2.51-9.35,0.1l-1.68,1.72L148.7,302c-2.6-2.56-6.79-2.53-9.35,0.07
						c-2.56,2.6-2.53,6.79,0.07,9.35l6.43,6.34c0.01,0.01,0.02,0.03,0.04,0.04c1.03,1.01,2.3,1.61,3.62,1.81
						c2.04,0.31,4.19-0.33,5.73-1.91l6.33-6.46C164.12,308.63,164.07,304.45,161.46,301.89z"/>
				</g>
				<g>
					<g>
						<g>
							<g>
								<g>
									<g>
										<g>
											<path class="st4" d="M615.78,300.86h-59.2c-5.75,0-10.41-4.66-10.41-10.41V235.4c0-4.36,3.53-7.89,7.89-7.89h61.72
												c4.36,0,7.89,3.53,7.89,7.89v57.56C623.67,297.32,620.14,300.86,615.78,300.86z"/>
										</g>
									</g>
								</g>
							</g>
						</g>
					</g>
					<g>
						<g>
							<g>
								<path class="st6" d="M580.59,275.29c5.47,0.09,11.01,0.17,16.04-0.18c1.59-0.11,2.97-2.64,1.03-3.44
									c0.81-0.42,1.64-0.82,1.99-1.73c0.34-0.86-0.07-2.04-0.97-2.26c1.9,0.47,2.65-2.54,1.17-3.51c0.78-0.67,1.44-1.55,1.6-2.57
									c0.17-1.02-0.25-2.16-1.15-2.65c-0.59-0.32-1.3-0.34-1.97-0.34c-2.28-0.02-4.55-0.03-6.83-0.05
									c0.62-3.56,0.8-7.44-1.01-10.57c-0.54-0.94-2.01-2.07-3.17-1.35c-1.09,0.68-0.79,2.37-0.73,3.43
									c0.23,4.43-2.29,8.88-6.2,10.97C580.39,261.05,580.65,270.48,580.59,275.29z"/>
							</g>
						</g>
						<rect x="570.34" y="261.05" class="st6" width="8.27" height="14.23"/>
					</g>
				</g>
			</g>
		</g>
		<g>
			<circle class="st7" cx="559.43" cy="70.81" r="7.05"/>
			<circle class="st7" cx="78.26" cy="373.27" r="7.05"/>
			<path class="st7" d="M689.6,241.17c0,2.62-2.12,4.74-4.74,4.74c-2.62,0-4.74-2.12-4.74-4.74s2.12-4.74,4.74-4.74
				C687.47,236.42,689.6,238.55,689.6,241.17z"/>
			<path class="st7" d="M97.73,107.44c0,0-2.38,3.99,0.88,6.37c3.27,2.38,6.11-2.07,9.73,0.68c3.63,2.75,0.61,6.1,0.61,6.1"/>
			<path class="st7" d="M658.29,325.95c0,0-1.82,5.5,2.8,7.51s6.86-4.16,12.02-1.81c5.15,2.36,2.39,7.25,2.39,7.25"/>
			<path class="st4" d="M109.33,232.94c0,3.38-2.74,6.11-6.11,6.11c-3.38,0-6.11-2.74-6.11-6.11c0-3.38,2.74-6.11,6.11-6.11
				C106.59,226.83,109.33,229.56,109.33,232.94z"/>
			<path class="st4" d="M630.67,137.43c0,3.38-2.74,6.11-6.11,6.11c-3.38,0-6.11-2.74-6.11-6.11c0-3.38,2.74-6.11,6.11-6.11
				C627.94,131.31,630.67,134.05,630.67,137.43z"/>
			<path class="st4" d="M619.72,378.15c0,2.58-2.09,4.67-4.67,4.67s-4.67-2.09-4.67-4.67c0-2.58,2.09-4.67,4.67-4.67
				S619.72,375.57,619.72,378.15z"/>
			<path class="st4" d="M332.92,52.99c0,2.58-2.09,4.67-4.67,4.67s-4.67-2.09-4.67-4.67c0-2.58,2.09-4.67,4.67-4.67
				S332.92,50.42,332.92,52.99z"/>
			<line class="st2" x1="616.44" y1="197.48" x2="656.94" y2="197.48"/>
			<line class="st8" x1="69.16" y1="186.4" x2="140.66" y2="186.4"/>
			<line class="st2" x1="368.27" y1="52.99" x2="411.26" y2="52.99"/>
		</g>
	</g>
	<g>
		<g>
			<path class="st9" d="M283.32,129.78c0,0-2.83,20.47-27.01,33.25c-25.79,13.63-7.46,54.62,37.41,56.01
				c48.73,1.51,75.35-42.39,38.88-97.39L283.32,129.78z"/>
			<g>
				<polygon class="st10" points="298.42,193.55 298.67,158.21 320.26,158.21 320.72,193.96 				"/>
				<path class="st9" d="M295.94,168.57c-1.14-3.13,7.48,14.49,16.43,13.34c7.68-0.98,8.97-14.8,8.97-14.8s-3.55,5.26-11.66,5.27
					C300.64,172.39,295.94,168.57,295.94,168.57z"/>
				<path class="st9" d="M283.07,138.73c2.75,15.75,11.9,29.01,26.59,29.01c14.68,0,24.78-13.1,26.59-29.01
					c2.05-18.05-11.9-28.7-26.59-28.7C294.97,110.03,280.25,122.55,283.07,138.73z"/>
				<g>
					<path class="st10" d="M286.68,146.94c0,0-1.91-3.04-5.86-1.55c-3.95,1.5-2.16,11.09,3.76,12.31c0,0,2.12,0.46,3.79-0.99
						C288.36,156.71,286.91,149.63,286.68,146.94z"/>
					<g>
						<g>
							<path class="st11" d="M281.6,148.78c0,0,3.31-1.1,5.65,3.77"/>
						</g>
					</g>
				</g>
				<g>
					<path class="st10" d="M332.02,146.94c0,0,1.91-3.04,5.86-1.55s2.16,11.09-3.76,12.31c0,0-2.12,0.46-3.79-0.99
						C330.33,156.71,331.79,149.63,332.02,146.94z"/>
					<g>
						<g>
							<path class="st11" d="M337.1,148.78c0,0-3.31-1.1-5.65,3.77"/>
						</g>
					</g>
				</g>
				<path class="st10" d="M286.3,138.68c0,6.14,0.63,17.7,4.62,25.33c3.74,7.16,10.4,10.8,18.51,10.81
					c7.99,0,15.31-5.44,18.52-11.59c4.84-9.3,4.61-24.44,4.61-24.44s0-21.95-22.88-21.95C285.59,116.84,286.3,138.68,286.3,138.68z"
					/>
				<g>
					<path class="st12" d="M304.28,137.62l-12.55,3.24c0,0,0.57-3.52,5.7-4.8C302.57,134.79,304.28,137.62,304.28,137.62z"/>
					<path class="st12" d="M312.26,137.62l12.55,3.24c0,0-0.57-3.52-5.7-4.8C313.97,134.79,312.26,137.62,312.26,137.62z"/>
					<polyline class="st11" points="307.55,148.01 306.98,152.49 310.24,152.49 					"/>
					<path class="st5" d="M318.25,156.29h-18.28c0,0,0.52,6.72,9.09,6.74C316.96,163.05,318.25,156.29,318.25,156.29z"/>
					<path class="st11" d="M301.69,144.82c0,0-3.47-1.77-6.4,0"/>
					<path class="st11" d="M321.65,144.82c0,0-3.47-1.77-6.4,0"/>
				</g>
				<path class="st9" d="M332.02,146.94c0,0-6.09-12.07-1.84-22.81c0,0,4.24,0.06,4.09,16.82L332.02,146.94z"/>
				<path class="st9" d="M286.68,146.94c0,0,6.07-12.83,1.84-22.81c0,0-4.24,0.06-4.09,16.82L286.68,146.94z"/>
				<path class="st9" d="M336.45,133.46c0,0-33-1.95-42.56-15.33c0,0,3.12-8.32,17.82-6.02
					C326.41,114.42,336.45,133.46,336.45,133.46z"/>
				<path class="st9" d="M307.41,114.7c0,0-9.33,19.39-22.68,18.74C284.73,133.44,292.06,114.89,307.41,114.7z"/>
			</g>
			<g>
				<path class="st4" d="M288.32,414.93c0,0,9.79-48.57,15.54-61.81c0.52-1.2,2.26-1.04,2.61,0.22c1.39,5.05,3.21,19.92,2.4,63.69
					l0.02,17.89h38.43l6.02-43.06c0.31-3.3,12.65-57.27-18.36-98.88h-60.16c0,0-24.32,41.84-27.68,93.01
					c-0.75,11.39-1.01,28.78-2.56,48.93h39.47L288.32,414.93z"/>
				<line class="st4" x1="287.25" y1="345.27" x2="307" y2="353.34"/>
			</g>
			<g>
				<g>
					<g>
						<path class="st1" d="M258.93,199.77c0,0-12.6,1.79-21.82,33.35l24.83,14.23l14.65-20.15L258.93,199.77z"/>
						<path class="st10" d="M261.94,247.35c0,0-16.49,25.85-20.4,30.5c-4.05,4.81-10.18,7.19-15.5,3.86l0,0
							c-4.8-3-6.57-9.12-4.13-14.22l17.12-33.42L261.94,247.35z"/>
					</g>
					<g>
						<polygon class="st10" points="222.12,199.81 241.86,264.05 220.81,273.21 208.15,200.77 						"/>
						<g>
							<g>
								<path class="st10" d="M220.76,203.01l3.08-2.97c2.26-2.18,3.66-5.1,3.94-8.22l0.79-8.71c0,0,0.5-4.59-8.63-3.44
									c-9.13,1.15-9.66,1.21-9.56,3.92c0,0,1.67,3.76,7.55,4.52L220.76,203.01z"/>
								<path class="st10" d="M209.21,204.34c0,0-9.01-4.99-9.43-20.78c-0.05-1.82,0.85-3.54,2.37-4.54
									c2.34-1.54,9.08-5.41,12.69-2.93l6.33,8.17l-0.41,18.75L209.21,204.34z"/>
								<path class="st10" d="M222.49,181.5l5.03-25.43c0.3-1.51-0.67-2.99-2.18-3.31l0,0c-1.51-0.32-3,0.63-3.34,2.13l-4.44,19.23
									l-2.13,0.41l-7.37-19.46c-0.52-1.37-2.07-2.03-3.41-1.45l0,0c-1.18,0.5-1.8,1.79-1.47,3.03l7.24,26.94L222.49,181.5z"/>
							</g>
							<path class="st13" d="M222.89,179.48c0,0-12.39-1.18-12.49,4.1c0,0-0.27,3.95,7.55,4.52c0,0-4.88,1.37-5.08,6.82"/>
						</g>
						<line class="st13" x1="235.04" y1="241.85" x2="240.28" y2="258.91"/>
					</g>
				</g>
				<g>
					<g>
						<path class="st10" d="M343.56,236.63c0,0,19.61,68.97,27.12,126.77l12.64-2.4c0,0-1.93-84.69-14.67-137.09L343.56,236.63z"/>
						<path class="st10" d="M383.22,358.11c0,0,19.02,28.08-3.81,40.7c-1.5,0.83-3.4,0.49-4.51-0.82l-0.15-0.17
							c-1.23-1.45-1.09-3.56,0.24-4.91c3.24-3.29,7.6-10.1,0.65-18.99c0,0-3.65,0.93-3.04,8.17c0.16,1.86-1.39,3.43-3.25,3.26l0,0
							c-1.27-0.12-2.31-1.03-2.62-2.27c-1.2-4.77-3.18-16.61,4.46-22.97L383.22,358.11z"/>
					</g>
					<path class="st3" d="M355.64,205.52c0,0,18.04,5.92,21.21,34.35l-29.32,11.12l-6.6-18.03L355.64,205.52z"/>
				</g>
				<g>
					<polygon class="st1" points="338.32,198.94 355.93,205.59 334.98,284.83 274.82,284.83 258.93,199.77 279.79,194.93 					"/>
					<g>
						<rect x="274.82" y="284.83" class="st12" width="60.16" height="8.15"/>
						<line class="st4" x1="266.62" y1="240.92" x2="261.94" y2="219.74"/>
						<line class="st14" x1="345.44" y1="245.27" x2="351.76" y2="221.67"/>
					</g>
					<path class="st10" d="M315.17,189.7l23.16,9.23c0,0-2.69,9.12-29.87,9.12c-23.68,0-28.67-13.13-28.67-13.13l22.49-5.22H315.17z
						"/>
				</g>
			</g>
		</g>
		<g>
			<g>
				<polygon class="st4" points="466.89,306.67 492.08,435.47 443.26,435.47 424.54,350.35 420.24,350.09 420.17,435.47 
					371.5,435.47 373.98,306.67 				"/>
				<line class="st14" x1="411.99" y1="349.49" x2="439.78" y2="349.49"/>
			</g>
			<g>
				<g>
					<g>
						<path class="st15" d="M489.33,216.26l45.94-11.75c9.15-2.57,14.56-11.99,12.17-21.19l0,0c-2.46-9.48-12.24-15.07-21.66-12.4
							l-45.99,13.06L489.33,216.26z"/>
						<polygon class="st1" points="494.39,175.63 449.52,181.53 462.35,227.32 505.2,218.4 						"/>
					</g>
					<g>
						<g>
							<path class="st15" d="M515.81,118.6c1.15-7.2-1.64-16.4-1.64-16.4l1.02-16.16c0.2-1.53-0.79-2.97-2.28-3.33l0,0
								c-1.62-0.39-3.25,0.59-3.66,2.2l-1.35,10.43l-1.43-0.03l-1.94-16.77c-0.15-2.04-2.03-3.5-4.05-3.14l0,0
								c-1.68,0.3-2.88,1.78-2.83,3.48l1.28,18.15l-1.47,0.29l-5.14-18.09c-0.55-2.1-2.75-3.31-4.82-2.66l0,0
								c-1.9,0.6-3.03,2.56-2.57,4.51l5.31,20.71l-1.86,0.51l-6.97-14.55c-0.81-1.68-2.89-2.3-4.49-1.33h0
								c-1.28,0.78-1.84,2.35-1.34,3.76l7.07,19.35l-5.85-0.15c-2.74,0.01-4.87,2.38-4.6,5.1l0,0c0.19,1.92,1.56,3.53,3.43,4.02
								l7.7,1.86c0,0,5.2,7.22,13.83,10.35C497.15,130.73,514.93,124.1,515.81,118.6z"/>
							<path class="st16" d="M482.64,109.54c0,0,11.17-0.66,17.8,5.64"/>
						</g>
						<g>
							<polygon class="st15" points="546.82,181.43 515.81,118.6 496.23,126.84 515.96,195.95 							"/>
							<line class="st16" x1="510.08" y1="175.38" x2="513.12" y2="186.03"/>
						</g>
					</g>
				</g>
				<g>
					<polygon class="st1" points="409.42,179.04 372.7,186.64 373.98,306.67 466.89,306.67 469.81,183.35 434.85,180.33 					"/>
					<line class="st4" x1="468.77" y1="226.02" x2="468.77" y2="210.52"/>
					<path class="st4" d="M397.57,237.62L397.57,237.62c-6.28,0-11.38-5.09-11.38-11.38v-11.38h22.75v11.38
						C408.94,232.53,403.85,237.62,397.57,237.62z"/>
				</g>
				<g>
					<g>
						<path class="st15" d="M346.06,217.14l-26.49,47.97c-4.64,8.4-1.7,18.96,6.61,23.75l0,0c8.2,4.74,18.68,2.13,23.72-5.9
							l27.5-43.88L346.06,217.14z"/>
						<g>
							<path class="st1" d="M337.85,223.82l38,24.39l6.1-29.13c6.43-10.38,14.61-22.91,4.32-29.51l0,0
								c-10.42-6.68-24.28-3.63-30.93,6.8L337.85,223.82z"/>
							<line class="st4" x1="373.35" y1="246.6" x2="373.35" y2="213.97"/>
						</g>
					</g>
					<g>
						<g>
							<polygon class="st15" points="332.6,291.06 402.15,289.16 406.93,266.69 328.33,256.75 							"/>
							<line class="st16" x1="363.55" y1="261.18" x2="345.44" y2="258.91"/>
						</g>
						<g>
							<path class="st15" d="M402.31,267.61c0,0,8.9-12.03,19.37-0.05l-4.16,8.27L402.31,267.61z"/>
							<path class="st12" d="M412.79,254.85l-2.75,16.83l21.22,2.36l3.37-16.17c0.36-1.74-0.84-3.42-2.61-3.64l-15.86-1.92
								C414.53,252.13,413.05,253.25,412.79,254.85z"/>
							<path class="st15" d="M406.79,266.17l25.11,0.62c2.91,0.07,5.23,2.45,5.23,5.36l0,0c0,2.06-1.18,3.94-3.03,4.83l-1.34,0.65
								c0,0,2.56,19.01-12.52,21.27c-15.09,2.26-23.54-9.66-23.54-9.66L406.79,266.17z"/>
						</g>
					</g>
				</g>
			</g>
			<g>
				<polygon class="st15" points="436.24,180.38 435.9,142.47 408.37,142.47 407.76,179.39 				"/>
				<path class="st9" d="M406.1,153.54c-1.43-3.27,9.56,18.13,20.78,16.93c9.62-1.03,10.02-18.46,10.02-18.46s-3.41,5.5-13.57,5.52
					C412,157.54,406.1,153.54,406.1,153.54z"/>
				<path class="st17" d="M450.55,121.56c-2.95,16.9-12.77,31.12-28.52,31.12c-15.75,0-26.58-14.06-28.52-31.12
					c-2.2-19.36,12.77-32.22,28.52-32.22C437.78,89.34,453.58,104.21,450.55,121.56z"/>
				<g>
					<path class="st15" d="M446.68,130.37c0,0,2.05-3.27,6.29-1.66c4.24,1.61,2.32,11.89-4.03,13.21c0,0-2.28,0.5-4.06-1.06
						C444.87,140.85,446.43,133.26,446.68,130.37z"/>
					<g>
						<g>
							<path class="st18" d="M452.13,132.34c0,0-3.55-1.18-6.07,4.04"/>
						</g>
					</g>
				</g>
				<g>
					<path class="st15" d="M398.04,130.37c0,0-2.05-3.27-6.29-1.66c-4.24,1.61-2.32,11.89,4.03,13.21c0,0,2.28,0.5,4.06-1.06
						C399.84,140.85,398.28,133.26,398.04,130.37z"/>
					<g>
						<g>
							<path class="st18" d="M392.59,132.34c0,0,3.55-1.18,6.07,4.04"/>
						</g>
					</g>
				</g>
				<path class="st15" d="M447.08,121.51c0,6.59-0.68,20.39-4.95,28.57c-4.01,7.69-10.65,11.82-19.35,12.07
					c-6.94,0.2-16.94-6.31-20.38-12.91c-5.19-9.98-4.95-27.61-4.95-27.61s0-23.55,24.54-23.55
					C447.85,98.08,447.08,121.51,447.08,121.51z"/>
				<g>
					<path class="st12" d="M413.69,129.49c0,1.05-0.85,1.9-1.9,1.9c-1.05,0-1.9-0.85-1.9-1.9c0-1.05,0.85-1.9,1.9-1.9
						C412.84,127.6,413.69,128.45,413.69,129.49z"/>
					<path class="st12" d="M433.29,129.49c0,1.05-0.85,1.9-1.9,1.9c-1.05,0-1.9-0.85-1.9-1.9c0-1.05,0.85-1.9,1.9-1.9
						C432.44,127.6,433.29,128.45,433.29,129.49z"/>
					<path class="st12" d="M416.93,121.77l-13.46,3.48c0,0,0.61-3.78,6.12-5.15C415.09,118.73,416.93,121.77,416.93,121.77z"/>
					<path class="st12" d="M425.48,121.77l13.46,3.48c0,0-0.61-3.78-6.12-5.15C427.32,118.73,425.48,121.77,425.48,121.77z"/>
					<polyline class="st18" points="419.82,134.3 419.82,139.11 423.31,139.11 					"/>
					<path class="st5" d="M432.57,143.16h-20.61c0,0,0.57,5.42,9.77,5.43C430.21,148.61,432.57,143.16,432.57,143.16z"/>
				</g>
				<path class="st17" d="M398.04,130.37c0,0,9.19-14.1,1.97-24.47c0,0-4.55,0.07-4.39,18.04L398.04,130.37z"/>
				<path class="st17" d="M446.68,130.37c0,0-9.19-14.1-1.97-24.47c0,0,4.55,0.07,4.39,18.04L446.68,130.37z"/>
				<path class="st17" d="M397.56,105.22c0,0,11.87,13.42,36.31,10.79c21.83-2.35,23.72-17.66,18.52-23.71
					c-7.43-8.65-23.81-5.43-32.57,4.22L397.56,105.22z"/>
				<g>
					<polygon class="st15" points="407.76,179.39 422.27,198.05 436.24,180.38 					"/>
					<polygon class="st4" points="407.76,176.75 399.19,181.16 408.87,200.56 418.54,193.26 					"/>
					<polygon class="st4" points="436.31,176.75 445.95,181.29 435.77,200.56 426.17,193.05 					"/>
				</g>
			</g>
		</g>
		<line class="st19" x1="95.3" y1="435.54" x2="648.86" y2="435.54"/>
	</g>
</g>
<g id="DESIGNED_BY_FREEPIK">
</g>
</svg>
